# xmcd
#
# Track frame offsets:
#	150
#	14975
#	29700
#	45348
#	58906
#	76245
#	93966
#	109105
#	125782
#	141358
#	159802
#	175485
#
# Disc length: 2572 seconds
#
# Revision: 1
# Processed by: cddbd v1.5.2PL0 Copyright (c) Steve Scherf et al.
# Submitted via: audiograbber 1.83.01
#
DISCID=a60a0a0c
DTITLE=Bellamy Brothers - Number One Hits
DYEAR=2008
DGENRE=Country
TTITLE0=Let Your Love Flow
TTITLE1=If I Said You Have A Beautiful Body (Would You Hold It Against Me)
TTITLE2=Redneck Girl
TTITLE3=Do You Love As Good As You Look
TTITLE4=When I'm Away From You
TTITLE5=For All The Wrong Reasons
TTITLE6=Dancing Cowboys
TTITLE7=Sugar Daddy
TTITLE8=I Need More Of You
TTITLE9=Old Hippie
TTITLE10=Kids Of The Baby Boom
TTITLE11=Too Much Is Not Enough
EXTD=
EXTT0=
EXTT1=
EXTT2=
EXTT3=
EXTT4=
EXTT5=
EXTT6=
EXTT7=
EXTT8=
EXTT9=
EXTT10=
EXTT11=
PLAYORDER=
